#!OML:ASF F:\VICON\USERDATA\INSTALL\rory3\rory3.ASF
:FULLY-SPECIFIED
:DEGREES
175
root 4.69276 17.3941 3.01473 16.3432 -25.1156 -6.59593
lowerback -3.3161 4.57406 3.80103
upperback -7.8766 6.11557 0.227358
thorax -5.98102 2.8172 -1.97025
lowerneck -12.1549 4.11228 1.90959
upperneck 39.6649 4.5907 2.47976
head 16.1792 2.48377 1.4979
rclavicle -4.96837e-014 -2.78299e-014
rhumerus 18.66 -11.8911 -13.1613
rradius 118.163
rwrist -53.2311
rhand -4.89042 -45.0342
rfingers 7.12502
rthumb 20.8987 -73.9285
lclavicle -4.96837e-014 -2.78299e-014
lhumerus 26.5587 27.8041 -0.864787
lradius 70.0333
lwrist 57.7588
lhand -31.6776 -31.6524
lfingers 7.12502
lthumb -4.93739 -1.72995
rfemur -31.1004 -12.3901 5.55189
rtibia 32.0587
rfoot 10.1465 -34.502
rtoes 22.4683
lfemur -25.9851 4.61218 -24.8472
ltibia 29.0127
lfoot -16.6863 15.293
ltoes 9.21965
176
root 4.69654 17.3944 3.01291 16.2189 -25.0394 -6.56293
lowerback -3.1815 4.54168 3.73699
upperback -7.90287 6.07889 0.202324
thorax -6.09116 2.79858 -1.9743
lowerneck -11.953 4.05116 1.90649
upperneck 39.7157 4.48879 2.50724
head 16.156 2.44408 1.48829
rclavicle 3.88748e-014 1.27222e-014
rhumerus 18.529 -11.6626 -13.2001
rradius 118.094
rwrist -53.1009
rhand -4.74678 -44.9676
rfingers 7.12502
rthumb 21.0367 -73.8466
lclavicle 3.88748e-014 1.27222e-014
lhumerus 26.5907 27.543 -0.704382
lradius 70.3462
lwrist 58.1982
lhand -31.4928 -31.2375
lfingers 7.12502
lthumb -4.75901 -1.31099
rfemur -31.4803 -12.4711 5.69637
rtibia 32.3826
rfoot 9.73926 -34.8743
rtoes 23.792
lfemur -25.8458 4.75818 -24.9033
ltibia 28.962
lfoot -16.9405 14.8988
ltoes 10.657
177
root 4.6989 17.3945 3.0047 16.0451 -24.9692 -6.35648
lowerback -2.9337 4.46216 3.46446
upperback -8.00443 5.9837 0.159985
thorax -6.36799 2.7575 -1.89567
lowerneck -11.7535 4.00822 1.90544
upperneck 39.8656 4.40818 2.54694
head 16.1854 2.41371 1.49087
rclavicle -1.77664e-014 2.38542e-015
rhumerus 18.3552 -11.3377 -13.2327
rradius 118.083
rwrist -53.0038
rhand -4.65939 -44.8767
rfingers 7.12502
rthumb 21.1206 -73.7463
lclavicle -1.77664e-014 2.38542e-015
lhumerus 26.7567 27.2763 -0.299207
lradius 70.5775
lwrist 58.5508
lhand -31.0372 -30.4442
lfingers 7.12502
lthumb -4.31909 -0.508239
rfemur -31.8249 -12.4145 5.61399
rtibia 32.7631
rfoot 5.66005 -35.7841
rtoes 28.813
lfemur -25.759 4.85043 -25.0992
ltibia 28.8891
lfoot -16.9296 14.655
ltoes 10.7188
178
root 4.70049 17.3911 2.99819 15.8585 -24.8367 -6.17156
lowerback -2.70888 4.31676 3.26114
upperback -8.02887 5.79696 0.134752
thorax -6.54832 2.67104 -1.82845
lowerneck -11.7104 4.02161 1.95389
upperneck 39.9797 4.42629 2.50899
head 16.2385 2.4204 1.47106
rclavicle -1.55301e-014 1.03368e-014
rhumerus 18.3327 -10.9622 -13.37
rradius 118.014
rwrist -52.6824
rhand -5.05058 -44.554
rfingers 7.12502
rthumb 20.7448 -73.4652
lclavicle -1.55301e-014 1.03368e-014
lhumerus 26.8011 27.1203 -0.0215273
lradius 70.766
lwrist 58.7686
lhand -30.8176 -30.3511
lfingers 7.12502
lthumb -4.10696 -0.410963
rfemur -32.4688 -12.7987 5.84126
rtibia 33.0616
rfoot 19.5469 -31.3437
rtoes 10.559
lfemur -25.6719 4.77926 -25.2229
ltibia 28.8575
lfoot -16.6813 14.6598
ltoes 9.53757
179
root 4.70398 17.3938 3.00047 15.7147 -24.7104 -6.15141
lowerback -2.63134 4.20799 3.27128
upperback -7.95971 5.65358 0.136293
thorax -6.52423 2.60032 -1.83269
lowerneck -11.7831 4.01109 2.06048
upperneck 40.056 4.4295 2.36802
head 16.3067 2.41542 1.39595
rclavicle -5.75482e-014 -1.07344e-014
rhumerus 18.4013 -10.6715 -13.5575
rradius 117.934
rwrist -52.5146
rhand -5.86494 -44.1754
rfingers 7.12502
rthumb 19.9622 -73.1701
lclavicle -5.75482e-014 -1.07344e-014
lhumerus 26.7522 27.0506 0.147985
lradius 71.0106
lwrist 58.9102
lhand -30.755 -30.7993
lfingers 7.12502
lthumb -4.04655 -0.857936
rfemur -32.5664 -12.6486 5.8
rtibia 33.3389
rfoot 9.94546 -35.4774
rtoes 25.2625
lfemur -25.5038 4.75137 -25.2162
ltibia 28.8436
lfoot -16.714 14.5438
ltoes 10.4983
180
root 4.70635 17.3945 3.00139 15.6944 -24.6053 -6.16636
lowerback -2.72283 4.15365 3.31162
upperback -7.92919 5.57533 0.121901
thorax -6.43776 2.56087 -1.85915
lowerneck -11.578 3.98513 2.1684
upperneck 39.9885 4.42107 2.2146
head 16.23 2.4074 1.29946
rclavicle 1.51076e-014 2.78299e-015
rhumerus 18.3068 -10.4121 -13.5592
rradius 117.988
rwrist -52.6655
rhand -6.55932 -43.9544
rfingers 7.12502
rthumb 19.2946 -73.0172
lclavicle 1.51076e-014 2.78299e-015
lhumerus 26.8266 26.9736 0.411992
lradius 71.2726
lwrist 59.0469
lhand -30.6 -30.6963
lfingers 7.12502
lthumb -3.89688 -0.752218
rfemur -33.016 -12.6765 6.0238
rtibia 33.4847
rfoot 13.5802 -34.4348
rtoes 21.2249
lfemur -25.4895 4.89177 -25.2268
ltibia 28.8637
lfoot -17.012 14.1518
ltoes 14.3062
181
root 4.70887 17.3953 3.00272 15.7168 -24.4624 -6.12214
lowerback -2.84897 4.0819 3.28398
upperback -7.98411 5.47357 0.12178
thorax -6.43238 2.51129 -1.83487
lowerneck -11.1819 3.98935 2.25588
upperneck 39.872 4.49443 2.00301
head 16.0815 2.42416 1.18782
rclavicle 6.06293e-015 1.19271e-014
rhumerus 18.1405 -10.0722 -13.4256
rradius 118.177
rwrist -52.7207
rhand -6.53892 -44.0553
rfingers 7.12502
rthumb 19.3142 -73.1161
lclavicle 6.06293e-015 1.19271e-014
lhumerus 26.8711 26.7451 0.716713
lradius 71.5344
lwrist 59.1069
lhand -30.6128 -30.3782
lfingers 7.12502
lthumb -3.90926 -0.434326
rfemur -33.3977 -12.6557 6.10485
rtibia 33.6178
rfoot 13.317 -34.3564
rtoes 21.8956
lfemur -25.58 5.06782 -25.3072
ltibia 28.9034
lfoot -17.1358 13.7863
ltoes 17.1414
182
root 4.71016 17.3954 3.00653 15.6406 -24.355 -6.09969
lowerback -2.8178 4.02445 3.24386
upperback -8.06505 5.40192 0.18059
thorax -6.55045 2.47613 -1.75711
lowerneck -10.9357 3.93747 2.16882
upperneck 40.0054 4.49067 1.88579
head 16.0917 2.39227 1.14777
rclavicle -5.89397e-014 -2.46493e-014
rhumerus 18.0082 -9.66584 -13.2696
rradius 118.291
rwrist -52.5193
rhand -6.03846 -44.0898
rfingers 7.12502
rthumb 19.7954 -73.1018
lclavicle -5.89397e-014 -2.46493e-014
lhumerus 26.8835 26.4312 1.13311
lradius 71.7914
lwrist 59.2127
lhand -30.5211 -29.8872
lfingers 7.12502
lthumb -3.82072 0.0583099
rfemur -33.6271 -12.5692 6.16645
rtibia 33.7101
rfoot 12.3659 -34.5605
rtoes 23.4313
lfemur -25.5645 5.17117 -25.3363
ltibia 28.9745
lfoot -17.0047 13.736
ltoes 16.909
183
root 4.70983 17.395 3.0055 15.5822 -24.268 -6.09661
lowerback -2.72968 3.97173 3.19264
upperback -8.14305 5.33894 0.232738
thorax -6.69778 2.44524 -1.68435
lowerneck -10.6923 3.82592 2.0083
upperneck 40.0999 4.38082 1.84943
head 16.0765 2.31585 1.13724
rclavicle 4.53478e-014 2.22639e-014
rhumerus 17.8839 -9.31116 -13.1492
rradius 118.307
rwrist -52.5228
rhand -5.98659 -43.8715
rfingers 7.12502
rthumb 19.8452 -72.8783
lclavicle 4.53478e-014 2.22639e-014
lhumerus 26.7636 26.0362 1.33095
lradius 72.085
lwrist 59.4875
lhand -30.5556 -29.0148
lfingers 7.12502
lthumb -3.85401 0.930064
rfemur -34.0076 -12.517 6.34669
rtibia 33.8529
rfoot 14.6568 -33.4722
rtoes 20.7198
lfemur -25.5775 5.17118 -25.3086
ltibia 29.0227
lfoot -16.72 13.8224
ltoes 15.4348
184
root 4.71026 17.3943 3.00054 15.6126 -24.1696 -6.07962
lowerback -2.6795 3.90671 3.12739
upperback -8.19608 5.25526 0.251464
thorax -6.7951 2.40545 -1.63367
lowerneck -10.4146 3.75215 1.93821
upperneck 39.8992 4.33758 1.72706
head 15.9043 2.27277 1.0753
rclavicle -1.17531e-014 -2.14687e-014
rhumerus 17.8202 -9.10255 -13.1222
rradius 118.356
rwrist -52.7805
rhand -6.22931 -43.8106
rfingers 7.12502
rthumb 19.6119 -72.8414
lclavicle -1.17531e-014 -2.14687e-014
lhumerus 26.6401 25.7105 1.43078
lradius 72.3489
lwrist 59.7351
lhand -30.807 -28.8556
lfingers 7.12502
lthumb -4.09677 1.08477
rfemur -34.4329 -12.4589 6.48349
rtibia 34.0074
rfoot 14.3488 -33.1642
rtoes 21.1982
lfemur -25.705 5.11497 -25.2928
ltibia 29.0727
lfoot -16.5874 13.7429
ltoes 15.1751
